<svg width="22" height="22" viewBox="0 0 22 22" fill="none" xmlns="http://www.w3.org/2000/svg">
<path d="M12.375 6.86549C12.375 7.22966 12.2301 7.57891 11.9723 7.83642C11.7144 8.09392 11.3647 8.23859 11 8.23859C10.6353 8.23859 10.2856 8.09392 10.0277 7.83642C9.76987 7.57891 9.625 7.22966 9.625 6.86549C9.625 6.50132 9.76987 6.15207 10.0277 5.89456C10.2856 5.63706 10.6353 5.49239 11 5.49239C11.3647 5.49239 11.7144 5.63706 11.9723 5.89456C12.2301 6.15207 12.375 6.50132 12.375 6.86549Z" fill="#2766C5"/>
<path d="M11.9023 15.7266C11.8641 15.9376 11.7528 16.1286 11.5879 16.2661C11.4231 16.4035 11.2151 16.4789 11.0003 16.4789C10.7855 16.4789 10.5776 16.4035 10.4127 16.2661C10.2479 16.1286 10.1366 15.9376 10.0983 15.7266L10.0837 15.5618L10.0837 10.9848L10.0983 10.82C10.1366 10.609 10.2479 10.418 10.4127 10.2805C10.5776 10.143 10.7855 10.0677 11.0003 10.0677C11.2151 10.0677 11.4231 10.143 11.5879 10.2805C11.7528 10.418 11.8641 10.609 11.9023 10.82L11.917 10.9848L11.917 15.5618L11.9023 15.7266Z" fill="#2766C5"/>
<path d="M1.83366 10.9848C1.83366 8.55699 2.79943 6.22864 4.51851 4.51193C6.2376 2.79522 8.56917 1.83078 11.0003 1.83078C13.4315 1.83079 15.7631 2.79522 17.4821 4.51193C19.2012 6.22864 20.167 8.55699 20.167 10.9848C20.167 13.4126 19.2012 15.7409 17.4821 17.4576C15.7631 19.1743 13.4315 20.1388 11.0003 20.1388C8.56917 20.1388 6.23759 19.1743 4.51851 17.4576C2.79943 15.7409 1.83366 13.4126 1.83366 10.9848ZM3.66699 10.9848C3.66699 12.927 4.43961 14.7897 5.81487 16.1631C7.19014 17.5364 9.0554 18.308 11.0003 18.308C12.9452 18.308 14.8105 17.5364 16.1858 16.1631C17.561 14.7897 18.3337 12.927 18.3337 10.9848C18.3337 9.04255 17.561 7.17986 16.1858 5.8065C14.8105 4.43313 12.9452 3.66158 11.0003 3.66158C9.0554 3.66158 7.19014 4.43313 5.81487 5.8065C4.43961 7.17986 3.66699 9.04255 3.66699 10.9848Z" fill="#2766C5"/>
</svg>